# xmcd
# 
# Track frame offsets:
#     150
#     21504
#     32368
#     50787
#     68458
#     83352
#     98577
#     114266
#     128193
#     145239
#     161150
#     178509
#     194239
#     210011
#     225555
#     242601
#     258373
#     284848
# 
# Disc length: 4660
# 
# Revision: 0
# Processed by: cddbd v1.5.2PL0 Copyright (c) Steve Scherf et al.
# Submitted via: fre:ac v1.0.17
# 
DISCID=f3123212
DTITLE=Peter Karp and Sue Foley - He Said She Said 
DYEAR=2010
DGENRE=Blues
TTITLE0=Treat Me Right
TTITLE1=So Far So Fast
TTITLE2=Wait
TTITLE3=Rules Of Engagement
TTITLE4=Hold On Baby
TTITLE5=Mm Hmm
TTITLE6=Danger Lurks
TTITLE7=Ready For Your Love
TTITLE8=Scared
TTITLE9=Valentine's Day
TTITLE10=Dear Girl
TTITLE11=Baby Don't Go
TTITLE12=Regret
TTITLE13=Lost In you
TTITLE14=J'ai peur (Scared french version)
TTITLE15=Regret (french version)
TTITLE16=Mm Hmm (french version)
TTITLE17=Data track
EXTD=
EXTT0=
EXTT1=
EXTT2=
EXTT3=
EXTT4=
EXTT5=
EXTT6=
EXTT7=
EXTT8=
EXTT9=
EXTT10=
EXTT11=
EXTT12=
EXTT13=
EXTT14=
EXTT15=
EXTT16=
EXTT17=
PLAYORDER=
